<?xml version="1.0" encoding="utf-8"?>
<!-- Generator: Adobe Illustrator 27.8.1, SVG Export Plug-In . SVG Version: 6.00 Build 0)  -->
<svg version="1.1" id="Layer_1" xmlns="http://www.w3.org/2000/svg" xmlns:xlink="http://www.w3.org/1999/xlink" x="0px" y="0px"
	 viewBox="0 0 100 100" style="enable-background:new 0 0 100 100;" xml:space="preserve">
<style type="text/css">
	.st0{fill:url(#SVGID_1_);}
	.st1{fill:#FF7C76;}
	.st2{opacity:0.5;fill:#9185E7;}
	.st3{fill:url(#SVGID_00000137103738834765010740000012338257583639438488_);}
	.st4{fill:url(#SVGID_00000164503706958533325890000008773934876314820277_);}
	.st5{opacity:0.35;fill:#FFFFFF;}
	.st6{fill:url(#SVGID_00000062153957889101468490000016915589671629308325_);}
	.st7{opacity:0.25;fill:#FFFFFF;}
	.st8{opacity:0.5;fill:#FFFFFF;}
	.st9{opacity:0.85;fill:#FFFFFF;}
	.st10{fill:#FFFFFF;}
	.st11{fill:url(#SVGID_00000060007096446637677950000018020104205278132885_);}
	.st12{fill:url(#SVGID_00000071533387863907795030000003169116312594779305_);}
	.st13{fill:#9378C9;}
	.st14{fill:url(#SVGID_00000067933443006733358240000014867567393496722574_);}
	.st15{fill:url(#SVGID_00000141439041641345848410000015385793343435165368_);}
	.st16{opacity:0.55;fill:url(#SVGID_00000140007371289251488800000007546204986571557262_);}
	.st17{fill:url(#SVGID_00000115473435346139050120000012561310036174321035_);}
	.st18{opacity:0.55;fill:url(#SVGID_00000057864257940479193460000014530181098418263172_);}
	.st19{fill:url(#SVGID_00000109713181886364731090000012381685059050393520_);}
	.st20{opacity:0.55;fill:url(#SVGID_00000012474569523795192590000005238966039672000152_);}
	.st21{fill:url(#SVGID_00000083051761634840396230000016867009696775036072_);}
	.st22{fill:#391160;}
	.st23{fill:url(#SVGID_00000070834131286225021790000004454017898383643788_);}
</style>
<g>
	<g>
		<g>
			<linearGradient id="SVGID_1_" gradientUnits="userSpaceOnUse" x1="15.734" y1="76.1105" x2="28.9554" y2="76.1105">
				<stop  offset="5.376340e-03" style="stop-color:#F94E41"/>
				<stop  offset="0.121" style="stop-color:#F2483B"/>
				<stop  offset="0.6772" style="stop-color:#D62E21"/>
				<stop  offset="1" style="stop-color:#CC2417"/>
			</linearGradient>
			<path class="st0" d="M28.96,69.17c0,0-3.29,2.13-5.83,5.93c-1.99,2.97-3.52,6.98-2.63,11.84c0.17,0.92-1.07,1.35-1.52,0.55
				c-2.31-4.16-4.7-10.71-2.09-17.29c0.77-1.98,2.01-3.95,3.84-5.87L28.96,69.17z"/>
			<path class="st1" d="M21.97,65.88l6.34,3.75c0.39-0.29,0.63-0.45,0.63-0.45l-8.23-4.86c-7.91,8.33-4.77,17.76-1.76,23.16
				c0.16,0.28,0.4,0.4,0.65,0.42C16.83,82.37,14.59,73.65,21.97,65.88z"/>
			<path class="st2" d="M28.96,69.17c0,0-3.29,2.13-5.83,5.93c-2.09-2.15-4.65-3.89-6.25-4.91c0.77-1.98,2.01-3.95,3.84-5.87
				L28.96,69.17z"/>
		</g>
		<g>
			
				<linearGradient id="SVGID_00000172436989685305051090000012593983248206199711_" gradientUnits="userSpaceOnUse" x1="292.518" y1="76.1105" x2="305.7393" y2="76.1105" gradientTransform="matrix(-1 0 0 1 376.3507 0)">
				<stop  offset="5.376340e-03" style="stop-color:#F94E41"/>
				<stop  offset="0.121" style="stop-color:#F2483B"/>
				<stop  offset="0.6772" style="stop-color:#D62E21"/>
				<stop  offset="1" style="stop-color:#CC2417"/>
			</linearGradient>
			<path style="fill:url(#SVGID_00000172436989685305051090000012593983248206199711_);" d="M70.61,69.17c0,0,3.29,2.13,5.83,5.93
				c1.99,2.97,3.52,6.98,2.63,11.84c-0.17,0.92,1.07,1.35,1.52,0.55c2.31-4.16,4.7-10.71,2.09-17.29c-0.77-1.98-2.01-3.95-3.84-5.87
				L70.61,69.17z"/>
			<path class="st1" d="M77.59,65.88l-6.34,3.75c-0.39-0.29-0.63-0.45-0.63-0.45l8.23-4.86c7.91,8.33,4.77,17.76,1.76,23.16
				c-0.16,0.28-0.4,0.4-0.65,0.42C82.73,82.37,84.97,73.65,77.59,65.88z"/>
			<path class="st2" d="M70.61,69.17c0,0,3.29,2.13,5.83,5.93c2.09-2.15,4.65-3.89,6.25-4.91c-0.77-1.98-2.01-3.95-3.84-5.87
				L70.61,69.17z"/>
		</g>
	</g>
	<g>
		
			<linearGradient id="SVGID_00000161603090897522214920000007574468037525181371_" gradientUnits="userSpaceOnUse" x1="19.983" y1="25.3409" x2="147.4617" y2="25.3409">
			<stop  offset="0" style="stop-color:#55FBFF"/>
			<stop  offset="0.343" style="stop-color:#3DCFF3"/>
			<stop  offset="0.9892" style="stop-color:#0B73DB"/>
		</linearGradient>
		<path style="fill:url(#SVGID_00000161603090897522214920000007574468037525181371_);" d="M80.37,33.42
			C72.58,38.43,61.5,40,50.69,40.03c0,0.02-1.02,0.02-1.02,0.02c-8.35-0.05-16.89-0.98-23.94-3.74c-2.07-0.8-4-1.75-5.76-2.89
			c0,0,0.04-0.6,0.24-1.6c0.16-0.83,0.45-1.96,0.91-3.25c2.29-6.32,8.99-16.72,28.55-17.88v-0.07c0.16,0,0.33,0.02,0.51,0.03
			c0.16-0.02,0.33-0.03,0.51-0.03v0.07c6.61,0.39,11.75,1.84,15.76,3.84C79.57,21.05,80.37,33.42,80.37,33.42z"/>
		<path class="st5" d="M74.52,33.16c-6.44,4.51-15.59,5.92-24.52,5.95c0,0.01-0.84,0.01-0.84,0.01c-8.93-0.04-18.09-1.45-24.53-5.97
			c0,0,0.03-0.54,0.2-1.44c0.83-4.45,4.89-17.77,24.34-19.01v-0.06c0.13,0,0.27,0.01,0.42,0.03c0.13-0.01,0.27-0.03,0.42-0.03v0.06
			c5.46,0.35,9.71,1.66,13.02,3.45C73.86,22.02,74.52,33.16,74.52,33.16z"/>
		
			<linearGradient id="SVGID_00000032621301061011665310000013313123918547872406_" gradientUnits="userSpaceOnUse" x1="19.983" y1="27.2917" x2="147.4617" y2="27.2917">
			<stop  offset="0" style="stop-color:#FFFFFF"/>
			<stop  offset="0.1471" style="stop-color:#DFDFE5"/>
			<stop  offset="0.4714" style="stop-color:#8F8CA2"/>
			<stop  offset="0.9466" style="stop-color:#0F0939"/>
			<stop  offset="0.9785" style="stop-color:#060032"/>
		</linearGradient>
		<path style="fill:url(#SVGID_00000032621301061011665310000013313123918547872406_);" d="M80.37,33.42
			C72.58,38.43,61.5,40,50.69,40.03c0,0.02-1.02,0.02-1.02,0.02c-10.79-0.05-21.85-1.62-29.64-6.6c-0.02-0.02-0.04-0.02-0.05-0.03
			c0,0,0.04-0.6,0.24-1.6c29.22,2.29,41.34-9.34,46.24-17.29c4.76,2.35,7.9,5.5,9.95,8.52C80.04,28.39,80.37,33.42,80.37,33.42z"/>
		<path class="st7" d="M29.84,20.9c-0.88,2.13-0.48,4.73,1.4,6.3c1.75,1.47,4.39,1.81,6.83,1.74c4.3-0.12,8.56-1.31,12.14-3.38
			c2.62-1.52,5.05-3.93,4.63-6.62c-0.69-4.33-8.06-6.31-12.39-5.73C37.7,13.84,31.52,16.84,29.84,20.9z"/>
		<path class="st8" d="M32.11,20.66c-0.61,1.48-0.33,3.27,0.97,4.36c1.21,1.01,3.04,1.25,4.73,1.2c2.98-0.08,5.93-0.9,8.4-2.34
			c1.81-1.05,3.5-2.72,3.2-4.58c-0.47-3-5.58-4.37-8.58-3.97C37.55,15.77,33.27,17.85,32.11,20.66z"/>
		<path class="st9" d="M80.37,33.42C72.58,38.43,61.5,40,50.69,40.03c0,0.02-1.02,0.02-1.02,0.02c-10.79-0.05-21.85-1.62-29.64-6.6
			c2.29-0.11,6.03-0.03,11.53,0.28c32.91,1.86,42.3-5.4,44.84-10.68C80.04,28.39,80.37,33.42,80.37,33.42z"/>
		<path class="st10" d="M43.55,16.39c0.71,1.11-0.18,2.76-1.99,3.7c-1.81,0.94-3.85,0.8-4.56-0.3c-0.71-1.11,0.18-2.76,1.99-3.7
			C40.79,15.15,42.84,15.28,43.55,16.39z"/>
		<path class="st10" d="M48.31,22.34c0.24,0.65-0.42,1.43-1.47,1.75c-1.06,0.32-2.11,0.06-2.35-0.59c-0.24-0.65,0.42-1.43,1.47-1.75
			C47.02,21.43,48.07,21.69,48.31,22.34z"/>
	</g>
	
		<linearGradient id="SVGID_00000105423485594071265510000011352378582822897025_" gradientUnits="userSpaceOnUse" x1="-0.464" y1="45.9332" x2="90.3413" y2="56.4612">
		<stop  offset="0" style="stop-color:#998CE6"/>
		<stop  offset="0.2957" style="stop-color:#FFE6DC"/>
		<stop  offset="0.4098" style="stop-color:#F5DDDD"/>
		<stop  offset="0.607" style="stop-color:#D9C4E0"/>
		<stop  offset="0.8619" style="stop-color:#AB9CE4"/>
		<stop  offset="0.9946" style="stop-color:#9185E7"/>
	</linearGradient>
	<path style="fill:url(#SVGID_00000105423485594071265510000011352378582822897025_);" d="M95.49,52.03l-3.59,3.33l-1.67,1.56
		l-6.96,6.45c-6.6,6.13-15.17,9.77-24.18,10.16c-1.09,0.04-2.22,0.08-3.39,0.11c-1.86,0.04-3.84,0.04-5.91,0.02
		c-3.37,0.04-6.49-0.02-9.31-0.13c-9.01-0.4-17.56-4.03-24.16-10.16l-3.37-3.12l-5.27-4.89l-3.59-3.33
		c0.02-0.02,9.99-17.07,9.99-17.07c1.05-1.83,3.12-2.75,5.21-2.43c1.02,0.17,2.05,0.32,3.07,0.45c2.43,0.34,4.84,0.62,7.21,0.83
		c1.96,0.19,3.9,0.34,5.81,0.43c4.78,0.26,9.43,0.32,13.87,0.24c0-0.02,1.09-0.02,1.09-0.02c2.54,0.06,5.16,0.06,7.85,0
		c5.98-0.11,12.25-0.55,18.59-1.41c1.17-0.17,2.35-0.34,3.52-0.53c2.07-0.32,4.14,0.6,5.21,2.43l9.97,17.05L95.49,52.03z"/>
	<path class="st9" d="M17.3,33.44c1.08,0.17,2.18,0.32,3.27,0.45c2.59,0.34,5.15,0.62,7.68,0.83c2.08,0.19,4.15,0.34,6.19,0.43
		c5.09,0.26,10.04,0.32,14.77,0.24c0-0.02,1.16-0.02,1.16-0.02c2.71,0.06,5.49,0.06,8.36,0c6.37-0.11,13.05-0.55,19.8-1.41
		c1.24-0.17,2.51-0.34,3.75-0.53c0.63-0.09,1.27-0.07,1.87,0.04c-1.09-0.8-2.47-1.16-3.86-0.94c-1.17,0.19-2.35,0.36-3.52,0.53
		c-6.34,0.87-12.61,1.3-18.59,1.41c-2.69,0.06-5.31,0.06-7.85,0.02c0-0.02-1.09-0.02-1.09-0.02c-4.44,0.09-9.09,0.04-13.87-0.23
		c-1.92-0.09-3.86-0.24-5.81-0.43c-2.37-0.21-4.78-0.49-7.21-0.83c-1.02-0.13-2.05-0.28-3.07-0.45c-1.4-0.21-2.79,0.14-3.87,0.94
		C16.02,33.37,16.66,33.35,17.3,33.44z"/>
	<path class="st7" d="M35.37,34.25l-0.41,30.58l-22.02-4.57l-5.27-4.89l14.68-22.37c0.58,0.08,1.17,0.17,1.75,0.23
		c1.58,0.21,3.14,0.4,4.7,0.53C31.02,33.96,33.21,34.13,35.37,34.25z"/>
	<path class="st9" d="M28.8,33.74L26.49,59.8l-14.41-3.44c0,0,9.62-16.29,13.09-22.93C26.74,33.63,27.24,33.61,28.8,33.74z"/>
	
		<linearGradient id="SVGID_00000098941450625541121670000010949444241287267494_" gradientUnits="userSpaceOnUse" x1="4.0767" y1="62.8466" x2="95.4901" y2="62.8466">
		<stop  offset="0" style="stop-color:#7A35BC"/>
		<stop  offset="0.9946" style="stop-color:#9185E7"/>
	</linearGradient>
	<path style="fill:url(#SVGID_00000098941450625541121670000010949444241287267494_);" d="M95.49,52.03l-11.97,11.1l-1.07,1
		c-1.94,1.81-4.05,3.37-6.3,4.67c-4.37,2.54-9.26,4.12-14.34,4.57c-0.4,0.04-0.81,0.08-1.2,0.09c-3.18,0.17-6.83,0.26-10.82,0.21
		c-3.99,0.06-7.64-0.04-10.82-0.21h-0.08c-4.46-0.24-8.79-1.37-12.78-3.26c-3.27-1.52-6.3-3.58-8.99-6.08l-4.55-4.23l-8.49-7.87
		c1.17,0.28,2.8,0.75,4.97,1.3c5.42,1.35,14.09,3.12,26.04,3.9c3.69,0.24,7.7,0.38,12.02,0.38c0.7,0,1.41-0.02,2.13-0.02h1.09
		c4.16,0.04,8.02-0.04,11.61-0.21c12.68-0.64,21.92-2.45,27.79-3.86c2.54-0.62,4.46-1.17,5.74-1.51L95.49,52.03z"/>
	<path class="st13" d="M9.04,54.42c5.42,1.35,14.09,3.12,26.04,3.9c3.69,0.24,7.7,0.38,12.02,0.38c0.7,0,1.41-0.02,2.13-0.02h1.09
		c4.16,0.04,8.02-0.04,11.61-0.21c12.68-0.64,21.92-2.45,27.79-3.86c1.65-0.4,3.01-0.77,4.13-1.07l1.63-1.51
		c-1.3,0.32-3.22,0.87-5.76,1.49c-5.87,1.41-15.11,3.22-27.79,3.86c-3.59,0.17-7.45,0.24-11.61,0.21h-1.09
		c-0.72,0-1.43,0.02-2.13,0.02c-4.33,0-8.34-0.13-12.02-0.38c-11.95-0.77-20.62-2.54-26.04-3.9c-2.16-0.55-3.8-1.02-4.95-1.32
		c-0.02,0.02,1.62,1.53,1.62,1.53C6.64,53.8,7.74,54.09,9.04,54.42z"/>
	<path class="st7" d="M38.89,73.46c-4.46-0.24-8.79-1.37-12.78-3.26L9.04,53.33c5.42,1.35,14.09,3.12,26.04,3.9L38.89,73.46z"/>
	
		<linearGradient id="SVGID_00000117650311845230212770000018414721108763744905_" gradientUnits="userSpaceOnUse" x1="75.7698" y1="74.506" x2="75.7698" y2="54.5211">
		<stop  offset="0" style="stop-color:#FFFFFF"/>
		<stop  offset="0.1605" style="stop-color:#EDEAFA"/>
		<stop  offset="0.5385" style="stop-color:#C5BCEF"/>
		<stop  offset="0.8308" style="stop-color:#ADA0E8"/>
		<stop  offset="1" style="stop-color:#A496E5"/>
	</linearGradient>
	<path style="fill:url(#SVGID_00000117650311845230212770000018414721108763744905_);" d="M89.73,53.51L76.15,68.79
		c-4.37,2.54-9.26,4.12-14.34,4.57l0.13-15.99C74.62,56.73,83.86,54.93,89.73,53.51z"/>
	
		<linearGradient id="SVGID_00000067929201445815847060000009200545447051987878_" gradientUnits="userSpaceOnUse" x1="29.5551" y1="53.0599" x2="95.4901" y2="53.0599">
		<stop  offset="0" style="stop-color:#FFFFFF"/>
		<stop  offset="0.1605" style="stop-color:#EDEAFA"/>
		<stop  offset="0.5385" style="stop-color:#C5BCEF"/>
		<stop  offset="0.8308" style="stop-color:#ADA0E8"/>
		<stop  offset="1" style="stop-color:#A496E5"/>
	</linearGradient>
	<path style="fill:url(#SVGID_00000067929201445815847060000009200545447051987878_);" d="M95.49,52.03l-3.59,3.33l-1.67,1.56
		l-6.96,6.45c-6.6,6.13-15.17,9.77-24.18,10.16c-1.09,0.04-2.22,0.08-3.39,0.11c3.39-4.12,6-8.99,6.87-14.62
		c2.03-13.45-18.42-21.34-33.01-25.21c1.96,0.19,3.9,0.34,5.81,0.43c4.78,0.26,9.43,0.32,13.87,0.24c0-0.02,1.09-0.02,1.09-0.02
		c2.54,0.06,5.16,0.06,7.85,0c5.98-0.11,12.25-0.55,18.59-1.41c1.17-0.17,2.35-0.34,3.52-0.53c2.07-0.32,4.14,0.6,5.21,2.43
		l9.97,17.05L95.49,52.03z"/>
	<g>
		<g>
			
				<radialGradient id="SVGID_00000036227497549158124300000009853038043180341427_" cx="50.8779" cy="57.9008" r="3.6458" gradientUnits="userSpaceOnUse">
				<stop  offset="0" style="stop-color:#FFFFFF"/>
				<stop  offset="1" style="stop-color:#000000"/>
			</radialGradient>
			
				<circle style="opacity:0.55;fill:url(#SVGID_00000036227497549158124300000009853038043180341427_);" cx="50.88" cy="57.9" r="3.65"/>
			
				<linearGradient id="SVGID_00000096052177848123846700000005817750049887761827_" gradientUnits="userSpaceOnUse" x1="50.8779" y1="56.1367" x2="50.8779" y2="59.6649">
				<stop  offset="0" style="stop-color:#55FBFF"/>
				<stop  offset="0.2334" style="stop-color:#53F8FE"/>
				<stop  offset="0.4" style="stop-color:#4EEFFC"/>
				<stop  offset="0.5458" style="stop-color:#46DFF8"/>
				<stop  offset="0.6798" style="stop-color:#3AC9F2"/>
				<stop  offset="0.8056" style="stop-color:#2AACEA"/>
				<stop  offset="0.9237" style="stop-color:#178AE1"/>
				<stop  offset="0.9892" style="stop-color:#0B73DB"/>
			</linearGradient>
			<circle style="fill:url(#SVGID_00000096052177848123846700000005817750049887761827_);" cx="50.88" cy="57.9" r="1.76"/>
		</g>
		<path class="st8" d="M51.4,58.92c-0.24,0.41-0.84,0.5-1.34,0.21c-0.51-0.29-0.73-0.86-0.49-1.27c0.24-0.41,0.84-0.5,1.34-0.21
			C51.42,57.95,51.64,58.52,51.4,58.92z"/>
	</g>
	<g>
		<g>
			
				<radialGradient id="SVGID_00000031183475222411677720000006038872442543832250_" cx="16.2263" cy="54.7095" r="3.6458" gradientUnits="userSpaceOnUse">
				<stop  offset="0" style="stop-color:#FFFFFF"/>
				<stop  offset="1" style="stop-color:#000000"/>
			</radialGradient>
			
				<circle style="opacity:0.55;fill:url(#SVGID_00000031183475222411677720000006038872442543832250_);" cx="16.23" cy="54.71" r="3.65"/>
			
				<linearGradient id="SVGID_00000127029269942436939740000004552911584017687440_" gradientUnits="userSpaceOnUse" x1="16.2263" y1="52.9454" x2="16.2263" y2="56.4736">
				<stop  offset="0" style="stop-color:#55FBFF"/>
				<stop  offset="0.2334" style="stop-color:#53F8FE"/>
				<stop  offset="0.4" style="stop-color:#4EEFFC"/>
				<stop  offset="0.5458" style="stop-color:#46DFF8"/>
				<stop  offset="0.6798" style="stop-color:#3AC9F2"/>
				<stop  offset="0.8056" style="stop-color:#2AACEA"/>
				<stop  offset="0.9237" style="stop-color:#178AE1"/>
				<stop  offset="0.9892" style="stop-color:#0B73DB"/>
			</linearGradient>
			<circle style="fill:url(#SVGID_00000127029269942436939740000004552911584017687440_);" cx="16.23" cy="54.71" r="1.76"/>
		</g>
		<path class="st8" d="M16.75,55.73c-0.24,0.41-0.84,0.5-1.34,0.21c-0.51-0.29-0.73-0.86-0.49-1.27c0.24-0.41,0.84-0.5,1.34-0.21
			C16.77,54.76,16.99,55.32,16.75,55.73z"/>
	</g>
	<g>
		<g>
			
				<radialGradient id="SVGID_00000019654428110529019260000013351797621874372790_" cx="81.97" cy="54.7193" r="3.6458" gradientUnits="userSpaceOnUse">
				<stop  offset="0" style="stop-color:#FFFFFF"/>
				<stop  offset="1" style="stop-color:#000000"/>
			</radialGradient>
			
				<circle style="opacity:0.55;fill:url(#SVGID_00000019654428110529019260000013351797621874372790_);" cx="81.97" cy="54.72" r="3.65"/>
			
				<linearGradient id="SVGID_00000038408188690959396040000002081109846751239354_" gradientUnits="userSpaceOnUse" x1="81.97" y1="52.9552" x2="81.97" y2="56.4834">
				<stop  offset="0" style="stop-color:#55FBFF"/>
				<stop  offset="0.2334" style="stop-color:#53F8FE"/>
				<stop  offset="0.4" style="stop-color:#4EEFFC"/>
				<stop  offset="0.5458" style="stop-color:#46DFF8"/>
				<stop  offset="0.6798" style="stop-color:#3AC9F2"/>
				<stop  offset="0.8056" style="stop-color:#2AACEA"/>
				<stop  offset="0.9237" style="stop-color:#178AE1"/>
				<stop  offset="0.9892" style="stop-color:#0B73DB"/>
			</linearGradient>
			<circle style="fill:url(#SVGID_00000038408188690959396040000002081109846751239354_);" cx="81.97" cy="54.72" r="1.76"/>
		</g>
		<path class="st8" d="M82.49,55.74c-0.24,0.41-0.84,0.5-1.34,0.21c-0.51-0.29-0.73-0.86-0.49-1.27c0.24-0.41,0.84-0.5,1.34-0.21
			C82.51,54.77,82.73,55.33,82.49,55.74z"/>
	</g>
	<path class="st7" d="M83.52,63.13l-1.07,1c-1.94,1.81-4.05,3.37-6.3,4.67c-4.37,2.54-9.26,4.12-14.34,4.57
		c-0.4,0.04-0.81,0.08-1.2,0.09c-3.18,0.17-6.83,0.26-10.82,0.21c-3.99,0.06-7.64-0.04-10.82-0.21h-0.08
		c-4.46-0.24-8.79-1.37-12.78-3.26c-3.27-1.52-6.3-3.58-8.99-6.08l-4.55-4.23c7.49,1,17.71,3.18,25.76,7.75
		C47.26,72.71,68.9,67.57,83.52,63.13z"/>
	<path class="st22" d="M54.97,68.98c0,1.52-1.97,2.74-4.4,2.74c-2.43,0-4.4-1.23-4.4-2.74c0-1.52,1.97-2.74,4.4-2.74
		C53,66.23,54.97,67.46,54.97,68.98z"/>
	
		<linearGradient id="SVGID_00000145768466140682676900000005747936675507314867_" gradientUnits="userSpaceOnUse" x1="47.5064" y1="78.3136" x2="53.6247" y2="78.3136">
		<stop  offset="5.376340e-03" style="stop-color:#F94E41"/>
		<stop  offset="0.121" style="stop-color:#F2483B"/>
		<stop  offset="0.6772" style="stop-color:#D62E21"/>
		<stop  offset="1" style="stop-color:#CC2417"/>
	</linearGradient>
	<path style="fill:url(#SVGID_00000145768466140682676900000005747936675507314867_);" d="M53.6,70.77l-2.13,18.08
		c-0.06,0.45-0.47,0.62-0.79,0.51c-0.21-0.06-0.38-0.21-0.41-0.49l-2.73-17.99c-0.28-1.9,1.05-3.65,2.8-3.65h0.43
		C52.49,67.23,53.81,68.89,53.6,70.77z"/>
	<path class="st2" d="M53.6,70.77l-2.13,18.08c-0.06,0.45-0.47,0.62-0.79,0.51c0.49-4.85-0.09-18.29-0.34-22.13h0.43
		C52.49,67.23,53.81,68.89,53.6,70.77z"/>
</g>
</svg>
