<?xml version="1.0" encoding="utf-8"?>
<!-- Generator: Adobe Illustrator 27.8.1, SVG Export Plug-In . SVG Version: 6.00 Build 0)  -->
<svg version="1.1" id="Layer_1" xmlns="http://www.w3.org/2000/svg" xmlns:xlink="http://www.w3.org/1999/xlink" x="0px" y="0px"
	 viewBox="0 0 1574.17 1574.17" style="enable-background:new 0 0 1574.17 1574.17;" xml:space="preserve">
<style type="text/css">
	.st0{fill:url(#SVGID_1_);}
	.st1{opacity:0.35;fill:#FFFFFF;}
	.st2{fill:url(#SVGID_00000109000644269395343390000004936563160135118731_);}
	.st3{fill:#FF7C76;}
	.st4{opacity:0.5;fill:#9185E7;}
	.st5{opacity:0.5;fill:#FFFFFF;}
	.st6{fill:url(#SVGID_00000036966274911342940030000007918212492270347709_);}
	.st7{fill:url(#SVGID_00000181766666775417673980000000887625203775931533_);}
	.st8{fill:url(#SVGID_00000142160624490994167170000017705347223867502230_);}
	.st9{opacity:0.85;fill:#FFFFFF;}
	.st10{fill:url(#SVGID_00000036929802085918826560000010985537327246342049_);}
	.st11{fill:#FFFFFF;}
	.st12{opacity:0.25;fill:#FFFFFF;}
	.st13{opacity:0.5;}
	.st14{fill:#5D57AD;}
	.st15{fill:url(#SVGID_00000062193216996693873580000010444765103226200996_);}
	.st16{fill:#726E91;}
	.st17{fill:url(#SVGID_00000066489881303774368040000007104196867135878538_);}
	.st18{fill:url(#SVGID_00000150074773620851114070000003973292868816344463_);}
	.st19{fill:url(#SVGID_00000134949104081616803850000001472815319705240488_);}
</style>
<g>
	<linearGradient id="SVGID_1_" gradientUnits="userSpaceOnUse" x1="784.4035" y1="640.5247" x2="784.4035" y2="292.5616">
		<stop  offset="5.376340e-03" style="stop-color:#FF871A"/>
		<stop  offset="0.1752" style="stop-color:#FF911C"/>
		<stop  offset="0.4688" style="stop-color:#FFAD22"/>
		<stop  offset="0.8483" style="stop-color:#FFDB2B"/>
		<stop  offset="0.9946" style="stop-color:#FFEE2F"/>
	</linearGradient>
	<path class="st0" d="M1125.56,640.52l-681.6-2.54c0,0-2.64-26.92,1.42-65.63c10.67-100.17,66.44-279.79,330.79-279.79
		c136.34,0,219.55,48.16,270.45,108.61C1132.37,503.27,1125.56,640.52,1125.56,640.52z"/>
	<path class="st1" d="M1100.93,617.47l-632.37-2.29c0,0-2.45-24.29,1.32-59.21c9.9-90.37,61.65-252.4,306.9-252.4
		c126.49,0,203.69,43.44,250.91,97.97C1107.24,493.65,1100.93,617.47,1100.93,617.47z"/>
	<g>
		
			<linearGradient id="SVGID_00000114773485196287668850000002957937850636284809_" gradientUnits="userSpaceOnUse" x1="-95.007" y1="1037.5919" x2="556.0146" y2="1037.5919" gradientTransform="matrix(-1 0 0 1 1457.2539 0)">
			<stop  offset="5.376340e-03" style="stop-color:#F94E41"/>
			<stop  offset="0.121" style="stop-color:#F2483B"/>
			<stop  offset="0.6772" style="stop-color:#D62E21"/>
			<stop  offset="1" style="stop-color:#CC2417"/>
		</linearGradient>
		<path style="fill:url(#SVGID_00000114773485196287668850000002957937850636284809_);" d="M901.24,1104.44l91.03-50.09
			c39.62-21.84,82.5-34.24,125.67-37.39c81.99-6.2,165.09,20.52,228.99,77.82l205.32,184.09L1353.24,796.3H1070.8L901.24,1104.44z"
			/>
		<polygon class="st3" points="1336.73,814.08 1061.02,814.08 1070.8,796.3 1353.24,796.3 1546.74,1265.5 		"/>
		<path class="st4" d="M901.24,1104.44l91.03-50.09c39.62-21.84,82.5-34.24,125.67-37.39c-42.57-82.6-33.93-164.69-18.29-220.66
			h-28.85L901.24,1104.44z"/>
		<polygon class="st5" points="1353.24,796.3 1336.73,814.08 1405.66,962.24 1349.07,820.01 		"/>
	</g>
	
		<linearGradient id="SVGID_00000027582136888009131220000003021259811463881384_" gradientUnits="userSpaceOnUse" x1="443.117" y1="520.8458" x2="1125.6899" y2="520.8458">
		<stop  offset="0" style="stop-color:#FFFFFF"/>
		<stop  offset="0.1453" style="stop-color:#FFEFDE"/>
		<stop  offset="0.4407" style="stop-color:#FFD19F"/>
		<stop  offset="0.6911" style="stop-color:#FFBB72"/>
		<stop  offset="0.8834" style="stop-color:#FFAD55"/>
		<stop  offset="0.9946" style="stop-color:#FFA84B"/>
	</linearGradient>
	<path style="fill:url(#SVGID_00000027582136888009131220000003021259811463881384_);" d="M1125.56,640.52l-681.6-2.54
		c0,0-2.64-26.92,1.42-65.63c290.66,54.76,502.89-82.7,601.24-171.19C1132.37,503.27,1125.56,640.52,1125.56,640.52z"/>
	
		<radialGradient id="SVGID_00000164514074245271953150000016876537466520981143_" cx="571.0756" cy="728.546" r="484.1238" gradientUnits="userSpaceOnUse">
		<stop  offset="0" style="stop-color:#FFE6DC"/>
		<stop  offset="0.1624" style="stop-color:#F5DDDD"/>
		<stop  offset="0.443" style="stop-color:#D9C4E0"/>
		<stop  offset="0.8058" style="stop-color:#AB9CE4"/>
		<stop  offset="0.9946" style="stop-color:#9185E7"/>
	</radialGradient>
	<path style="fill:url(#SVGID_00000164514074245271953150000016876537466520981143_);" d="M1158.58,628.64l-105.35,196.69
		l-148.63,277.45l-53.13-1.52l-3.86-0.1l-3.86-0.1l-72.03-2.13l-31.49-0.91l-15.95-0.51l-4.06-0.1l-3.96-0.1l-25.3-0.71l-20.01-0.61
		l-235.9-422.94l-3.35-6l-1.63-2.84l-19.81-35.56h406.28C992.27,628.64,1158.58,628.64,1158.58,628.64z"/>
	<g>
		
			<linearGradient id="SVGID_00000181088165391348191470000012377664225682914739_" gradientUnits="userSpaceOnUse" x1="22.4436" y1="1029.1252" x2="673.464" y2="1029.1252">
			<stop  offset="5.376340e-03" style="stop-color:#F96041"/>
			<stop  offset="0.2957" style="stop-color:#E94A32"/>
			<stop  offset="0.7412" style="stop-color:#D42E1E"/>
			<stop  offset="1" style="stop-color:#CC2417"/>
		</linearGradient>
		<path style="fill:url(#SVGID_00000181088165391348191470000012377664225682914739_);" d="M673.46,1095.97l-91.03-50.09
			c-39.62-21.84-82.5-34.24-125.67-37.39c-81.99-6.2-165.09,20.52-228.99,77.82L22.44,1270.41l199.03-482.58H503.9L673.46,1095.97z"
			/>
		<polygon class="st3" points="237.98,805.62 513.69,805.62 503.9,787.84 221.47,787.84 27.96,1257.04 		"/>
		<path class="st4" d="M673.46,1095.97l-91.03-50.09c-39.62-21.84-82.5-34.24-125.67-37.39c42.57-82.6,33.93-164.69,18.29-220.66
			h28.85L673.46,1095.97z"/>
		<polygon class="st9" points="221.47,787.84 237.98,805.62 169.05,953.78 225.63,811.54 		"/>
	</g>
	
		<linearGradient id="SVGID_00000121986773743007405900000008464658374435005846_" gradientUnits="userSpaceOnUse" x1="375.2023" y1="865.7092" x2="1123.55" y2="865.7092">
		<stop  offset="0" style="stop-color:#FFFFFF"/>
		<stop  offset="0.1605" style="stop-color:#EDEAFA"/>
		<stop  offset="0.5385" style="stop-color:#C5BCEF"/>
		<stop  offset="0.8308" style="stop-color:#ADA0E8"/>
		<stop  offset="1" style="stop-color:#A496E5"/>
	</linearGradient>
	<path style="fill:url(#SVGID_00000121986773743007405900000008464658374435005846_);" d="M1158.58,628.64l-16.97,31.6
		l-88.39,165.09l-148.63,277.45c-0.3,0-109.82-3.15-109.82-3.15l-2.24-0.1l-20.83-0.61c7.52-8.03,14.73-16.26,21.64-24.69
		c29.36-35.56,53.13-74.47,63.8-114.9c6.2-23.98,7.92-48.56,3.45-73.25c-29.16-160.42-339.73-204-425.58-213.04l-3.35-6l-1.63-2.84
		l-19.81-35.56h406.28C992.27,628.64,1158.58,628.64,1158.58,628.64z"/>
	<path class="st11" d="M666.94,374.31c10.52,13.43-5.57,43.6-35.94,67.38c-30.37,23.78-63.51,32.17-74.03,18.74
		c-10.52-13.43,5.57-43.6,35.94-67.38C623.28,369.27,656.42,360.88,666.94,374.31z"/>
	<path class="st11" d="M700.33,445.23c3.95,5.04-2.09,16.37-13.5,25.3c-11.4,8.93-23.85,12.08-27.8,7.04
		c-3.95-5.04,2.09-16.37,13.5-25.3C683.94,443.33,696.38,440.18,700.33,445.23z"/>
	<path class="st12" d="M586.69,362.31c-38.77,22.36-69.67,59.31-82.96,102.74c-9.59,31.33-4.91,69.36,19.98,90.67
		c18.14,15.53,43.32,19.62,67.17,20.69c63.39,2.84,135.28-9.88,190.99-41.34c32.3-18.23,60.21-47.19,69.27-83.16
		c14.29-56.76-32.05-114.32-86.06-127.36c-42.4-10.24-87.21-0.63-128.09,14.58C619.73,345.55,602.67,353.1,586.69,362.31z"/>
	<path class="st12" d="M589.28,346.95c-26.87,15.5-48.29,41.11-57.5,71.21c-6.65,21.72-3.4,48.08,13.85,62.85
		c12.57,10.77,30.03,13.6,46.56,14.34c43.94,1.97,93.77-6.85,132.39-28.65c22.39-12.64,41.74-32.71,48.01-57.64
		c9.9-39.34-22.22-79.24-59.65-88.28c-29.39-7.1-60.45-0.44-88.79,10.1C612.18,335.33,600.35,340.56,589.28,346.95z"/>
	<g class="st13">
		<g>
			<g>
				<g>
					<polygon class="st14" points="724.26,1097.5 720.2,1097.4 716.23,1097.29 592.8,646.62 596.46,645.6 600.11,644.59 					"/>
				</g>
			</g>
		</g>
		<g>
			<g>
				<g>
					<polygon class="st14" points="976.01,646.62 851.46,1101.26 847.6,1101.16 843.74,1101.05 968.7,644.59 972.36,645.6 					"/>
				</g>
			</g>
		</g>
	</g>
	
		<linearGradient id="SVGID_00000008115652612818907180000016179525442455507592_" gradientUnits="userSpaceOnUse" x1="771.0714" y1="1101.5121" x2="771.0714" y2="785.4726">
		<stop  offset="5.376340e-03" style="stop-color:#F94E41"/>
		<stop  offset="0.121" style="stop-color:#F2483B"/>
		<stop  offset="0.6772" style="stop-color:#D62E21"/>
		<stop  offset="1" style="stop-color:#CC2417"/>
	</linearGradient>
	<polygon style="fill:url(#SVGID_00000008115652612818907180000016179525442455507592_);" points="767.14,787.84 757.74,805.62 
		781.02,1100.24 784.41,1101.51 	"/>
	<path class="st16" d="M904.29,1102.78l-111.75-3.25l0.81-25.3l8.84-278.78c2.23,4.47,27.43,80.26,54.96,163.87
		C873.4,1008.7,890.57,1060.92,904.29,1102.78z"/>
	<path class="st12" d="M1141.61,660.23l-88.39,165.09l-148.63,277.45c-0.3,0-109.82-3.15-109.82-3.15
		c202.78-82.39,326.63-435.44,326.63-435.44L1141.61,660.23z"/>
	
		<linearGradient id="SVGID_00000150810457496655303460000006330457773736269207_" gradientUnits="userSpaceOnUse" x1="767.1412" y1="1029.1252" x2="808.1108" y2="1029.1252">
		<stop  offset="0" style="stop-color:#FF7C76"/>
		<stop  offset="0.0933" style="stop-color:#F9716B"/>
		<stop  offset="0.5016" style="stop-color:#E1483D"/>
		<stop  offset="0.8173" style="stop-color:#D22E21"/>
		<stop  offset="1" style="stop-color:#CC2417"/>
	</linearGradient>
	<polygon style="fill:url(#SVGID_00000150810457496655303460000006330457773736269207_);" points="767.14,787.84 789.49,1270.41 
		808.11,787.84 	"/>
	<path class="st12" d="M740.21,1098.01l-15.95-0.51l-4.06-0.1l-3.96-0.1l-25.3-0.71C625.1,944.39,451.68,643.07,451.68,643.07
		l183.38-14.43l42.67-3.35l0.41,3.35L740.21,1098.01z"/>
	
		<linearGradient id="SVGID_00000030452793602428863380000005180123068925392780_" gradientUnits="userSpaceOnUse" x1="352.6628" y1="637.9843" x2="1148.4556" y2="637.9843">
		<stop  offset="0" style="stop-color:#9185E7"/>
		<stop  offset="0.2312" style="stop-color:#FFE6DC"/>
		<stop  offset="0.3442" style="stop-color:#F5DCDB"/>
		<stop  offset="0.5394" style="stop-color:#D9C0D8"/>
		<stop  offset="0.7918" style="stop-color:#AB94D3"/>
		<stop  offset="0.9946" style="stop-color:#826CCF"/>
	</linearGradient>
	<path style="fill:url(#SVGID_00000030452793602428863380000005180123068925392780_);" d="M1185.71,637.98
		c0,8.23-3.35,15.54-8.74,20.93c-5.28,5.38-12.8,8.74-20.93,8.74H419.48c-16.36,0-29.56-13.31-29.56-29.67
		c0-8.23,3.35-15.54,8.64-20.93c5.38-5.38,12.8-8.74,20.93-8.74h736.56C1172.4,608.32,1185.71,621.63,1185.71,637.98z"/>
	<polygon class="st12" points="715.63,608.32 707.4,667.65 515.89,667.65 504.41,608.32 	"/>
	<polygon class="st9" points="619.52,667.65 554.8,667.65 548.5,608.32 619.01,608.32 	"/>
	
		<linearGradient id="SVGID_00000178167252841456679340000016542006066863362985_" gradientUnits="userSpaceOnUse" x1="919.7304" y1="637.9843" x2="1112.9645" y2="637.9843">
		<stop  offset="0" style="stop-color:#FFFFFF"/>
		<stop  offset="0.1605" style="stop-color:#EDEAFA"/>
		<stop  offset="0.5385" style="stop-color:#C5BCEF"/>
		<stop  offset="0.8308" style="stop-color:#ADA0E8"/>
		<stop  offset="1" style="stop-color:#A496E5"/>
	</linearGradient>
	<path style="fill:url(#SVGID_00000178167252841456679340000016542006066863362985_);" d="M1112.96,608.32l-12.19,59.33H927.65
		c-2.84-21.23-5.69-42.97-7.92-59.33H1112.96z"/>
</g>
</svg>
